<svg width="40" height="47" viewBox="0 0 40 47" fill="none" xmlns="http://www.w3.org/2000/svg">
<path d="M15.7244 19.9998C17.0578 19.9998 18.1378 20.9998 18.1133 22.222C18.1133 23.4442 17.06 24.4442 15.7244 24.4442C14.4133 24.4442 13.3333 23.4442 13.3333 22.222C13.3333 20.9998 14.3889 19.9998 15.7244 19.9998ZM24.2756 19.9998C25.6111 19.9998 26.6667 20.9998 26.6667 22.222C26.6667 23.4442 25.6111 24.4442 24.2756 24.4442C22.9644 24.4442 21.8867 23.4442 21.8867 22.222C21.8867 20.9998 22.94 19.9998 24.2756 19.9998ZM35.3133 -0.000244141C37.8978 -0.000244141 40 2.14642 40 4.80642V46.6664L35.0867 42.2331L32.32 39.6198L29.3933 36.842L30.6067 41.1598H4.68667C2.10222 41.1598 0 39.0131 0 36.3531V4.80642C0 2.14642 2.10222 -0.000244141 4.68667 -0.000244141H35.3111H35.3133ZM26.4911 30.4731C31.5422 30.3109 33.4867 26.9264 33.4867 26.9264C33.4867 19.4131 30.1933 13.322 30.1933 13.322C26.9044 10.8042 23.7711 10.8731 23.7711 10.8731L23.4511 11.2464C27.3378 12.4598 29.1422 14.2109 29.1422 14.2109C27.0202 13.0153 24.6814 12.2538 22.2622 11.9709C20.7276 11.7975 19.1776 11.8125 17.6467 12.0153C17.5089 12.0153 17.3933 12.0398 17.2578 12.062C16.4578 12.1331 14.5133 12.4353 12.0689 13.5331C11.2244 13.9286 10.72 14.2109 10.72 14.2109C10.72 14.2109 12.6178 12.3664 16.7311 11.1531L16.5022 10.8731C16.5022 10.8731 13.3711 10.8042 10.08 13.3242C10.08 13.3242 6.78889 19.4131 6.78889 26.9264C6.78889 26.9264 8.70889 30.3086 13.76 30.4731C13.76 30.4731 14.6044 29.4242 15.2933 28.5375C12.3889 27.6486 11.2933 25.782 11.2933 25.782C11.2933 25.782 11.52 25.9464 11.9311 26.1798C11.9533 26.202 11.9756 26.2264 12.0222 26.2486C12.0911 26.2975 12.16 26.3198 12.2289 26.3664C12.8 26.6931 13.3711 26.9486 13.8956 27.1598C14.8333 27.5331 15.9533 27.9064 17.2578 28.1642C19.2118 28.5472 21.2209 28.5548 23.1778 28.1864C24.3176 27.983 25.4296 27.6466 26.4911 27.1842C27.2911 26.8798 28.1822 26.4353 29.12 25.8064C29.12 25.8064 27.9778 27.7198 24.9822 28.5842C25.6689 29.4709 26.4933 30.4731 26.4933 30.4731H26.4911Z" fill="#DDE5E9"/>
</svg>
