<svg width="32" height="32" viewBox="0 0 32 32" fill="none" xmlns="http://www.w3.org/2000/svg">
<path d="M16 0.000244141C7.168 0.000244141 0 7.16824 0 16.0002C0 24.8322 7.168 32.0002 16 32.0002C24.816 32.0002 32 24.8322 32 16.0002C32 7.16824 24.816 0.000244141 16 0.000244141ZM26.568 7.37624C28.5371 9.77514 29.6267 12.7752 29.656 15.8786C29.2064 15.7922 24.6944 14.8722 20.1472 15.445C20.0432 15.2194 19.9552 14.9762 19.8528 14.733C19.5697 14.0659 19.2688 13.4065 18.9504 12.7554C23.9824 10.7074 26.2736 7.75704 26.568 7.37624ZM16 2.36024C19.472 2.36024 22.6464 3.66264 25.0592 5.79704C24.816 6.14264 22.7504 8.90264 17.8912 10.725C15.6528 6.61304 13.1712 3.24504 12.7888 2.72504C13.8414 2.47898 14.9191 2.35655 16 2.36024ZM10.1872 3.64504C12.0183 6.18315 13.7099 8.81905 15.2544 11.541C8.8672 13.2418 3.2272 13.205 2.6208 13.205C3.06052 11.1364 3.97217 9.19739 5.28464 7.53911C6.59711 5.88083 8.27491 4.54816 10.1872 3.64504ZM2.3248 16.0162V15.6002C2.9168 15.6162 9.544 15.7042 16.3648 13.6562C16.7648 14.4194 17.128 15.2002 17.4752 15.981C17.3008 16.0338 17.1104 16.085 16.9376 16.1378C9.8912 18.4098 6.1424 24.6226 5.8304 25.1442C3.57414 22.6394 2.32582 19.3875 2.3264 16.0162H2.3248ZM16 29.6754C12.9623 29.6806 10.0107 28.6665 7.6176 26.7954C7.8608 26.2914 10.6384 20.9458 18.3424 18.2562C18.3776 18.2402 18.3952 18.2402 18.4288 18.221C19.7285 21.5737 20.7052 25.0428 21.3456 28.581C19.6573 29.3075 17.838 29.68 16 29.6754ZM23.6176 27.3314C23.48 26.4994 22.7504 22.5074 20.9616 17.597C25.2496 16.9202 28.9984 18.0306 29.4656 18.1874C29.1738 20.0324 28.5037 21.7971 27.4973 23.3706C26.4909 24.9442 25.17 26.2927 23.6176 27.3314Z" fill="#3A3A3C"/>
</svg>
