<svg width="40" height="36" viewBox="0 0 40 36" fill="none" xmlns="http://www.w3.org/2000/svg">
<path fill-rule="evenodd" clip-rule="evenodd" d="M29.878 -0.000244141C32.56 -0.000244141 35.14 1.05976 37.038 2.96176C38.938 4.85976 40 7.41976 40 10.0998V25.8998C40 31.4798 35.46 35.9998 29.878 35.9998H10.12C4.538 35.9998 0 31.4798 0 25.8998V10.0998C0 4.51976 4.518 -0.000244141 10.12 -0.000244141H29.878ZM33.0601 13.08L33.2201 12.92C33.6981 12.34 33.6981 11.5 33.1981 10.92C32.9201 10.622 32.5381 10.44 32.1401 10.4C31.7201 10.378 31.3201 10.52 31.0181 10.8L22.0001 18C20.8401 18.962 19.1781 18.962 18.0001 18L9.00006 10.8C8.37805 10.34 7.51805 10.4 7.00005 10.94C6.46005 11.48 6.40005 12.34 6.85806 12.94L7.12006 13.2L16.2201 20.3C17.3401 21.18 18.6981 21.66 20.1201 21.66C21.5381 21.66 22.9201 21.18 24.0381 20.3L33.0601 13.08Z" fill="#DDE5E9"/>
</svg>
