<svg width="32" height="32" viewBox="0 0 32 32" fill="none" xmlns="http://www.w3.org/2000/svg">
<path d="M16 0.000244141C7.16 0.000244141 2.33527e-06 7.16024 2.33527e-06 16.0002C-0.00181241 19.3591 1.0541 22.6332 3.01795 25.3581C4.98179 28.083 7.75383 30.1204 10.9408 31.181C11.7408 31.3202 12.04 30.8402 12.04 30.4194C12.04 30.0402 12.0192 28.781 12.0192 27.4402C8 28.181 6.96 26.461 6.64 25.5602C6.4592 25.0994 5.68 23.6802 5 23.2994C4.44 23.0002 3.64 22.2594 4.9792 22.2402C6.24 22.2194 7.1392 23.4002 7.44 23.8802C8.88 26.2994 11.1808 25.6194 12.0992 25.2002C12.24 24.1602 12.6592 23.461 13.12 23.061C9.56 22.661 5.84 21.2802 5.84 15.1602C5.84 13.4194 6.4592 11.981 7.48 10.8594C7.32 10.4594 6.76 8.81944 7.64 6.61944C7.64 6.61944 8.9792 6.20024 12.04 8.26104C13.3425 7.89954 14.6883 7.71759 16.04 7.72024C17.4 7.72024 18.76 7.89944 20.04 8.25944C23.0992 6.17944 24.44 6.62104 24.44 6.62104C25.32 8.82104 24.76 10.461 24.6 10.861C25.6192 11.981 26.24 13.4002 26.24 15.1602C26.24 21.301 22.5008 22.661 18.9408 23.061C19.52 23.5602 20.0208 24.5202 20.0208 26.021C20.0208 28.1602 20 29.8802 20 30.421C20 30.8402 20.3008 31.3394 21.1008 31.1794C24.2768 30.1071 27.0367 28.0658 28.9918 25.3429C30.947 22.6199 31.9991 19.3524 32 16.0002C32 7.16024 24.84 0.000244141 16 0.000244141Z" fill="#3A3A3C"/>
</svg>
