<svg width="32" height="32" viewBox="0 0 32 32" fill="none" xmlns="http://www.w3.org/2000/svg">
<path d="M16 11.2002C14.727 11.2002 13.5061 11.706 12.6059 12.6061C11.7057 13.5063 11.2 14.7272 11.2 16.0002C11.2 17.2733 11.7057 18.4942 12.6059 19.3944C13.5061 20.2945 14.727 20.8002 16 20.8002C17.273 20.8002 18.4939 20.2945 19.3941 19.3944C20.2943 18.4942 20.8 17.2733 20.8 16.0002C20.8 14.7272 20.2943 13.5063 19.3941 12.6061C18.4939 11.706 17.273 11.2002 16 11.2002ZM16 8.00024C18.1217 8.00024 20.1566 8.8431 21.6569 10.3434C23.1571 11.8437 24 13.8785 24 16.0002C24 18.122 23.1571 20.1568 21.6569 21.6571C20.1566 23.1574 18.1217 24.0002 16 24.0002C13.8783 24.0002 11.8434 23.1574 10.3431 21.6571C8.84285 20.1568 8 18.122 8 16.0002C8 13.8785 8.84285 11.8437 10.3431 10.3434C11.8434 8.8431 13.8783 8.00024 16 8.00024ZM26.4 7.60024C26.4 8.13068 26.1893 8.63939 25.8142 9.01446C25.4391 9.38953 24.9304 9.60024 24.4 9.60024C23.8696 9.60024 23.3609 9.38953 22.9858 9.01446C22.6107 8.63939 22.4 8.13068 22.4 7.60024C22.4 7.06981 22.6107 6.5611 22.9858 6.18603C23.3609 5.81096 23.8696 5.60024 24.4 5.60024C24.9304 5.60024 25.4391 5.81096 25.8142 6.18603C26.1893 6.5611 26.4 7.06981 26.4 7.60024ZM16 3.20024C12.0416 3.20024 11.3952 3.21144 9.5536 3.29304C8.2992 3.35224 7.4576 3.52024 6.6768 3.82424C5.9824 4.09304 5.4816 4.41464 4.9488 4.94904C4.44801 5.43288 4.06296 6.02358 3.8224 6.67704C3.5184 7.46104 3.3504 8.30104 3.2928 9.55384C3.2096 11.3202 3.2 11.9378 3.2 16.0002C3.2 19.9586 3.2112 20.605 3.2928 22.4466C3.352 23.6994 3.52 24.5426 3.8224 25.3218C4.0944 26.0178 4.4144 26.5186 4.9456 27.0498C5.4848 27.5874 5.9856 27.909 6.6736 28.1746C7.464 28.4802 8.3056 28.6498 9.5536 28.7074C11.32 28.7906 11.9376 28.8002 16 28.8002C19.9584 28.8002 20.6048 28.789 22.4464 28.7074C23.6976 28.6482 24.5408 28.4802 25.3216 28.1778C26.0144 27.9074 26.5184 27.5858 27.0496 27.0546C27.5888 26.5154 27.9104 26.0146 28.176 25.3266C28.48 24.5378 28.6496 23.6946 28.7072 22.4466C28.7904 20.6802 28.8 20.0626 28.8 16.0002C28.8 12.0418 28.7888 11.3954 28.7072 9.55384C28.648 8.30264 28.48 7.45784 28.176 6.67704C27.9349 6.02425 27.5505 5.43378 27.0512 4.94904C26.5676 4.448 25.9768 4.06291 25.3232 3.82264C24.5392 3.51864 23.6976 3.35064 22.4464 3.29304C20.68 3.20984 20.0624 3.20024 16 3.20024ZM16 0.000244141C20.3472 0.000244141 20.8896 0.016244 22.5952 0.0962441C24.2992 0.176244 25.4592 0.443444 26.48 0.840244C27.536 1.24664 28.4256 1.79704 29.3152 2.68504C30.1288 3.48488 30.7583 4.45239 31.16 5.52024C31.5552 6.53944 31.824 7.70104 31.904 9.40504C31.9792 11.1106 32 11.653 32 16.0002C32 20.3474 31.984 20.8898 31.904 22.5954C31.824 24.2994 31.5552 25.4594 31.16 26.4802C30.7595 27.5487 30.1298 28.5164 29.3152 29.3154C28.5151 30.1288 27.5477 30.7582 26.48 31.1602C25.4608 31.5554 24.2992 31.8242 22.5952 31.9042C20.8896 31.9794 20.3472 32.0002 16 32.0002C11.6528 32.0002 11.1104 31.9842 9.4048 31.9042C7.7008 31.8242 6.5408 31.5554 5.52 31.1602C4.45172 30.7594 3.48404 30.1298 2.6848 29.3154C1.87105 28.5157 1.24149 27.5482 0.84 26.4802C0.4432 25.461 0.176 24.2994 0.0959999 22.5954C0.0207999 20.8898 0 20.3474 0 16.0002C0 11.653 0.0159999 11.1106 0.0959999 9.40504C0.176 7.69944 0.4432 6.54104 0.84 5.52024C1.24038 4.45173 1.87009 3.48396 2.6848 2.68504C3.48427 1.87101 4.45189 1.24141 5.52 0.840244C6.5408 0.443444 7.6992 0.176244 9.4048 0.0962441C11.1104 0.0210441 11.6528 0.000244141 16 0.000244141Z" fill="#3A3A3C"/>
</svg>
