<svg width="32" height="32" viewBox="0 0 32 32" fill="none" xmlns="http://www.w3.org/2000/svg">
<path d="M27.2622 27.2696H22.5244V19.8438C22.5244 18.0731 22.4889 15.794 20.0533 15.794C17.584 15.794 17.2071 17.7211 17.2071 19.714V27.2696H12.4676V12.0002H17.0187V14.0802H17.0809C17.7173 12.882 19.264 11.6145 21.5751 11.6145C26.3751 11.6145 27.264 14.7754 27.264 18.8874V27.2696H27.2622ZM7.11644 9.91136C6.75477 9.91182 6.39655 9.8409 6.06233 9.70266C5.72812 9.56441 5.42448 9.36156 5.16881 9.10573C4.91315 8.8499 4.71049 8.54613 4.57246 8.21182C4.43443 7.87752 4.36374 7.51926 4.36444 7.15758C4.3648 6.61328 4.52654 6.08132 4.82923 5.62895C5.13191 5.17658 5.56195 4.82413 6.06494 4.61616C6.56794 4.40819 7.12131 4.35405 7.65508 4.46058C8.18884 4.56711 8.67903 4.82953 9.06366 5.21466C9.44828 5.59978 9.71007 6.09031 9.81591 6.62421C9.92175 7.15811 9.8669 7.71142 9.65828 8.21414C9.44966 8.71687 9.09665 9.14645 8.6439 9.44855C8.19114 9.75065 7.65896 9.91171 7.11467 9.91136H7.11644ZM9.49156 27.2696H4.73956V12.0002H9.49333V27.2696H9.49156ZM29.6356 0.000244141H2.36267C1.05422 0.000244141 0 1.03136 0 2.30602V29.6945C0 30.9691 1.056 32.0002 2.36089 32.0002H29.6284C30.9333 32.0002 32 30.9691 32 29.6945V2.30602C32 1.03136 30.9333 0.000244141 29.6284 0.000244141H29.6338H29.6356Z" fill="#3A3A3C"/>
</svg>
