<svg width="40" height="40" viewBox="0 0 40 40" fill="none" xmlns="http://www.w3.org/2000/svg">
<path d="M22.9101 38.66C19.9727 39.1189 16.9684 38.8776 14.1418 37.9559C11.3153 37.0341 8.7463 35.458 6.64403 33.3557C4.54176 31.2535 2.96561 28.6845 2.04388 25.8579C1.12215 23.0314 0.88089 20.0271 1.33973 17.0896C0.181759 14.8871 -0.241378 12.3719 0.132169 9.91169C0.505716 7.45149 1.65636 5.17525 3.41593 3.41569C5.1755 1.65612 7.45173 0.505472 9.91194 0.131925C12.3721 -0.241622 14.8873 0.181514 17.0899 1.33949C20.0273 0.880646 23.0316 1.12191 25.8582 2.04364C28.6847 2.96537 31.2537 4.54152 33.356 6.64379C35.4582 8.74605 37.0344 11.315 37.9561 14.1416C38.8779 16.9682 39.1191 19.9724 38.6603 22.9099C39.8182 25.1124 40.2414 27.6276 39.8678 30.0878C39.4943 32.548 38.3436 34.8243 36.5841 36.5838C34.8245 38.3434 32.5483 39.494 30.0881 39.8676C27.6279 40.2411 25.1127 39.818 22.9101 38.66ZM20.1155 31.4536H20.0267C26.4067 31.4536 29.5856 28.3747 29.5856 24.2494C29.5856 21.5881 28.3616 18.7602 23.5299 17.6783L19.1247 16.7009C17.4475 16.3188 15.5215 15.8123 15.5215 14.224C15.5215 12.6356 16.8988 11.5293 19.3513 11.5293C24.3052 11.5293 23.8542 14.9237 26.3067 14.9237C27.5863 14.9237 28.7348 14.164 28.7348 12.8578C28.7348 9.81436 23.8542 7.52626 19.7245 7.52626C15.235 7.52626 10.4544 9.43449 10.4544 14.5105C10.4544 16.9497 11.3296 19.5532 16.1413 20.7595L22.1148 22.2501C23.9275 22.6988 24.3763 23.714 24.3763 24.6315C24.3763 26.1576 22.8568 27.6482 20.1155 27.6482C14.7462 27.6482 15.4993 23.523 12.6203 23.523C11.3319 23.523 10.3922 24.4071 10.3922 25.68C10.3922 28.1547 13.3956 31.4514 20.1155 31.4514V31.4536Z" fill="#DDE5E9"/>
</svg>
