<svg width="32" height="27" viewBox="0 0 32 27" fill="none" xmlns="http://www.w3.org/2000/svg">
<path d="M31.9984 3.08886C30.7999 3.61899 29.529 3.96716 28.2276 4.12183C29.5993 3.30147 30.6259 2.01039 31.1162 0.489177C29.8289 1.25527 28.4176 1.79216 26.9466 2.08258C25.9586 1.02541 24.6489 0.324284 23.2213 0.0882108C21.7936 -0.147862 20.328 0.0943431 19.0522 0.777172C17.7764 1.46 16.762 2.5452 16.1666 3.86405C15.5712 5.1829 15.4282 6.66152 15.7598 8.07002C13.1493 7.93918 10.5955 7.2608 8.26419 6.07892C5.93288 4.89703 3.87618 3.23807 2.22763 1.20974C1.6441 2.21202 1.33745 3.35138 1.33909 4.51115C1.33909 6.78745 2.49765 8.79844 4.25903 9.97583C3.21665 9.94302 2.19723 9.66152 1.28571 9.1548V9.23643C1.28603 10.7524 1.81063 12.2217 2.77056 13.3951C3.7305 14.5685 5.06669 15.3738 6.55259 15.6744C5.58495 15.9366 4.57034 15.9753 3.58556 15.7874C4.0045 17.0924 4.82105 18.2336 5.92087 19.0514C7.02069 19.8691 8.34871 20.3224 9.719 20.3479C8.35711 21.4175 6.79777 22.2081 5.13011 22.6747C3.46246 23.1412 1.7192 23.2745 0 23.0669C3.0011 24.9969 6.49466 26.0215 10.0628 26.0182C22.1397 26.0182 28.7441 16.0135 28.7441 7.3369C28.7441 7.05433 28.7363 6.76861 28.7237 6.48918C30.0092 5.56008 31.1187 4.40914 32 3.09043L31.9984 3.08886Z" fill="#3A3A3C"/>
</svg>
