<svg width="34" height="34" viewBox="0 0 34 34" fill="none" xmlns="http://www.w3.org/2000/svg">
<g clip-path="url(#clip0)">
<path d="M25.2189 10.63C25.6006 11.6983 25.3725 12.9511 24.5008 13.8229C23.306 15.0177 21.3721 15.0177 20.1772 13.8228C18.9824 12.628 18.9821 10.6942 20.1772 9.49911C21.0447 8.63165 22.2979 8.39801 23.37 8.78112L32.1512 0L12.9783 3.55055L7.59814 15.6561C7.9248 15.9828 17.1994 25.2574 18.344 26.402L18.344 26.4019L30.4495 21.0217L34.0001 1.84892L25.2189 10.63Z" fill="#F2F2F5"/>
<path d="M4.32371 15.264L0 19.5878L14.4123 34.0001L18.736 29.6764C17.7365 28.6769 5.04666 15.987 4.32371 15.264Z" fill="#F2F2F5"/>
<path d="M21.3201 11.661C21.3201 12.2242 21.776 12.6801 22.3392 12.6801C22.6114 12.6801 22.8673 12.5741 23.0597 12.3817L23.0597 12.3815C23.458 11.9834 23.458 11.3387 23.0597 10.9403C22.8673 10.7479 22.6113 10.6418 22.3392 10.6418C21.7759 10.6419 21.3201 11.0977 21.3201 11.661Z" fill="#F2F2F5"/>
</g>
<defs>
<clipPath id="clip0">
<rect width="34" height="34" fill="white"/>
</clipPath>
</defs>
</svg>
